<svg xmlns="http://www.w3.org/2000/svg" viewBox="0 0 512 512" aria-labelledby="title desc"><title>FamilyJournal icon</title><desc>A rounded journal icon with two parents and two children silhouettes and a care checkmark.</desc><defs><linearGradient id="a" x1="0" y1="0" x2="0" y2="1"><stop offset="0%" stop-color="#fff"/><stop offset="100%" stop-color="#f8fafc"/></linearGradient></defs><g transform="translate(-181.78 -202.24)scale(1.71)"><rect x="118" y="144" width="276" height="240" rx="28" fill="url(#a)" stroke="#7c3aed" stroke-width="12"/><path d="M256 144v240" stroke="#7c3aed" stroke-width="10" stroke-linecap="round"/><path d="M160 188h66m-66 32h88m-88 32h55" stroke="#c4b5fd" stroke-width="12" stroke-linecap="round"/></g><g transform="translate(-181.78 -188.56)scale(1.71)"><circle cx="200" cy="240" r="22" fill="#334155"/><path d="M166 312c0-26 16-42 34-42s34 16 34 42v20h-68z" fill="#334155"/><circle cx="312" cy="240" r="22" fill="#334155"/><path d="M278 312c0-26 16-42 34-42s34 16 34 42v20h-68z" fill="#334155"/><circle cx="235" cy="268" r="16" fill="#64748b"/><path d="M213 318c0-18 10-30 22-30s22 12 22 30v14h-44z" fill="#64748b"/><circle cx="277" cy="268" r="16" fill="#64748b"/><path d="M255 318c0-18 10-30 22-30s22 12 22 30v14h-44z" fill="#64748b"/></g><path d="M255.98 119.24c-17.1-27.36-61.56-34.2-71.82 3.42-8.55 32.49 17.1 58.14 71.82 95.76 54.72-37.62 80.37-63.27 71.82-95.76-10.26-37.62-54.72-30.78-71.82-3.42" fill="#a78bfa"/><path d="m375.68 399.68 23.94 23.94 61.56-68.4" fill="none" stroke="#7c3aed" stroke-width="23.94" stroke-linecap="round" stroke-linejoin="round"/></svg>
