<svg xmlns="http://www.w3.org/2000/svg" viewBox="0 0 512 512" role="img" aria-labelledby="title desc">
  <title id="title">FamilyJournal icon</title>
  <desc id="desc">A rounded journal icon with two parents and two children silhouettes and a care checkmark.</desc>

  <defs>
    <linearGradient id="bg" x1="0" y1="0" x2="1" y2="1">
      <stop offset="0%" stop-color="#EAF7F3"/>
      <stop offset="100%" stop-color="#D7F0EA"/>
    </linearGradient>
    <linearGradient id="book" x1="0" y1="0" x2="0" y2="1">
      <stop offset="0%" stop-color="#FFFFFF"/>
      <stop offset="100%" stop-color="#F2F7F6"/>
    </linearGradient>
  </defs>

  <!-- Background -->
  <rect x="32" y="32" width="448" height="448" rx="104" fill="url(#bg)"/>
  <rect x="48" y="48" width="416" height="416" rx="92" fill="none" stroke="#B7DDD4" stroke-width="8"/>

  <!-- Journal -->
  <g transform="translate(0,0)">
    <rect x="118" y="144" width="276" height="240" rx="28" fill="url(#book)" stroke="#6EAFA2" stroke-width="12"/>
    <path d="M256 144v240" stroke="#6EAFA2" stroke-width="10" stroke-linecap="round"/>
    <path d="M160 188h66" stroke="#A8CFC6" stroke-width="12" stroke-linecap="round"/>
    <path d="M160 220h88" stroke="#A8CFC6" stroke-width="12" stroke-linecap="round"/>
    <path d="M160 252h58" stroke="#A8CFC6" stroke-width="12" stroke-linecap="round"/>
  </g>

  <!-- Family: 2 parents + 2 kids -->
  <g transform="translate(0,8)">
    <!-- Parent Left -->
    <circle cx="200" cy="240" r="22" fill="#2E6F66"/>
    <path d="M166 312c0-26 16-42 34-42s34 16 34 42v20h-68z" fill="#2E6F66"/>

    <!-- Parent Right -->
    <circle cx="312" cy="240" r="22" fill="#2E6F66"/>
    <path d="M278 312c0-26 16-42 34-42s34 16 34 42v20h-68z" fill="#2E6F66"/>

    <!-- Kid Left -->
    <circle cx="235" cy="268" r="16" fill="#3A8B7F"/>
    <path d="M213 318c0-18 10-30 22-30s22 12 22 30v14h-44z" fill="#3A8B7F"/>

    <!-- Kid Right -->
    <circle cx="277" cy="268" r="16" fill="#3A8B7F"/>
    <path d="M255 318c0-18 10-30 22-30s22 12 22 30v14h-44z" fill="#3A8B7F"/>
  </g>

  <!-- Heart -->
  <path d="M256 188
           C246 172, 220 168, 214 190
           C209 209, 224 224, 256 246
           C288 224, 303 209, 298 190
           C292 168, 266 172, 256 188Z"
        fill="#E98C8C"/>

  <!-- Check mark (bottom-right, inside border) -->
  <path d="M327 360l14 14 36-40"
        fill="none" stroke="#6EAFA2" stroke-width="14"
        stroke-linecap="round" stroke-linejoin="round"/>

</svg>
